<svg aria-hidden="true" style="position: absolute; width: 0; height: 0; overflow: hidden;" version="1.1" xmlns="http://www.w3.org/2000/svg" xmlns:xlink="http://www.w3.org/1999/xlink">
<defs>
<symbol id="icon-cart" viewBox="0 0 32 32">
<title>cart</title>
<path d="M12 29c0 1.657-1.343 3-3 3s-3-1.343-3-3c0-1.657 1.343-3 3-3s3 1.343 3 3z"></path>
<path d="M32 29c0 1.657-1.343 3-3 3s-3-1.343-3-3c0-1.657 1.343-3 3-3s3 1.343 3 3z"></path>
<path d="M32 16v-12h-24c0-1.105-0.895-2-2-2h-6v2h4l1.502 12.877c-0.915 0.733-1.502 1.859-1.502 3.123 0 2.209 1.791 4 4 4h24v-2h-24c-1.105 0-2-0.895-2-2 0-0.007 0-0.014 0-0.020l26-3.98z"></path>
</symbol>
<symbol id="icon-trophy" viewBox="0 0 32 32">
<title>trophy</title>
<path d="M26 6v-4h-20v4h-6v4c0 3.314 2.686 6 6 6 0.627 0 1.232-0.096 1.801-0.275 1.443 2.063 3.644 3.556 6.199 4.075v6.2h-2c-2.209 0-4 1.791-4 4h16c0-2.209-1.791-4-4-4h-2v-6.2c2.555-0.519 4.756-2.012 6.199-4.075 0.568 0.179 1.173 0.275 1.801 0.275 3.314 0 6-2.686 6-6v-4h-6zM6 13.625c-1.999 0-3.625-1.626-3.625-3.625v-2h3.625v2c0 1.256 0.232 2.457 0.655 3.565-0.213 0.039-0.431 0.060-0.655 0.060zM29.625 10c0 1.999-1.626 3.625-3.625 3.625-0.224 0-0.442-0.021-0.655-0.060 0.423-1.107 0.655-2.309 0.655-3.565v-2h3.625v2z"></path>
</symbol>
<symbol id="icon-plus" viewBox="0 0 32 32">
<title>plus</title>
<path d="M31 12h-11v-11c0-0.552-0.448-1-1-1h-6c-0.552 0-1 0.448-1 1v11h-11c-0.552 0-1 0.448-1 1v6c0 0.552 0.448 1 1 1h11v11c0 0.552 0.448 1 1 1h6c0.552 0 1-0.448 1-1v-11h11c0.552 0 1-0.448 1-1v-6c0-0.552-0.448-1-1-1z"></path>
</symbol>
<symbol id="icon-minus" viewBox="0 0 32 32">
<title>minus</title>
<path d="M0 13v6c0 0.552 0.448 1 1 1h30c0.552 0 1-0.448 1-1v-6c0-0.552-0.448-1-1-1h-30c-0.552 0-1 0.448-1 1z"></path>
</symbol>
<symbol id="icon-twitch" viewBox="0 0 32 32">
<title>twitch</title>
<path d="M3 0l-3 5v23h8v4h4l4-4h5l9-9v-19h-27zM26 17l-5 5h-5l-4 4v-4h-6v-18h20v13z"></path>
<path d="M19 8h3v8h-3v-8z"></path>
<path d="M13 8h3v8h-3v-8z"></path>
</symbol>
</defs>
</svg>
